<?xml version="1.0" encoding="utf-8"?>
<!-- Generator: Adobe Illustrator 22.1.0, SVG Export Plug-In . SVG Version: 6.00 Build 0)  -->
<svg version="1.1" id="Layer_1" xmlns="http://www.w3.org/2000/svg" xmlns:xlink="http://www.w3.org/1999/xlink" x="0px" y="0px"
	 viewBox="0 0 318 211" style="enable-background:new 0 0 318 211;" xml:space="preserve">
<style type="text/css">
	.st0{fill:#FFFFFF;}
	.st1{fill:#0044A0;}
	.st2{fill:#3F8DE0;}
</style>
<g>
	<g>
		<path class="st0" d="M159.3,157.8l0.1,0.1l3.1-3.1c0,0-0.1-0.1-0.1-0.1L159.3,157.8z"/>
	</g>
	<g>
		<g>
			<g>
				<path class="st0" d="M207.5,169.7c-3.7,0-7.5-0.3-11.2-1c-11.8-2.1-22.7-7.6-31.6-15.8l-2.1-1.9l1.9-2.1l20.2-20.2l1.9,1.9
					c6.2,6.2,13.5,9.2,22.4,9.2c8.8,0,16.1-3,22.4-9.2c3.7-3.7,6.3-8,7.8-13l-10.5-5.6l-0.3-0.3c-1.3-1.3-1.6-2.6-1.6-3.4
					c0-0.9,0.3-2.2,1.6-3.4l0.3-0.3l10.5-5.6c-1.5-4.9-4.1-9.2-7.8-12.9c-6.2-6.2-13.5-9.2-22.4-9.2c-8.8,0-16.1,3-22.4,9.2
					l-1.9,1.9l-23.8-23.8l1.9-1.9c9.3-9.3,20.9-15.4,33.6-17.6c3.7-0.7,7.5-1,11.1-1c34.8,0,63,28.3,63,63.1
					C270.5,141.4,242.2,169.7,207.5,169.7z"/>
			</g>
			<g>
				<path d="M207.5,46.3c33.3,0,60.3,27.1,60.3,60.3c0,33.3-27.1,60.3-60.3,60.3c-3.7,0-7.2-0.3-10.8-1c-11.3-2-21.7-7.2-30.2-15.1
					c0,0-0.1-0.1-0.1-0.1l18.2-18.2c6.7,6.7,14.8,10,24.3,10c9.5,0,17.6-3.3,24.3-10c4.5-4.5,7.6-10,9.1-16.3l-12.1-6.5
					c-1-1-1-2,0-3l12.1-6.5c-1.5-6.3-4.5-11.7-9.1-16.2c-6.7-6.7-14.8-10-24.3-10c-9.5,0-17.6,3.3-24.3,10l-19.9-19.9
					c0,0,0.1-0.1,0.1-0.1c8.8-8.8,20-14.6,32.1-16.8C200.3,46.7,203.9,46.3,207.5,46.3 M207.5,40.9c-3.8,0-7.7,0.3-11.6,1
					c-13.3,2.4-25.4,8.7-35,18.3l-3.9,3.9l3.8,3.9l19.9,19.9l3.9,3.9l3.9-3.9c5.7-5.7,12.4-8.4,20.4-8.4c8.1,0,14.7,2.8,20.4,8.4
					c2.8,2.8,5,6,6.4,9.6l-8.1,4.3l-0.7,0.4l-0.6,0.6c-3.2,3.2-3.2,7.6,0,10.8l0.6,0.6l0.7,0.4l8.1,4.4c-1.4,3.7-3.5,6.9-6.4,9.7
					c-5.7,5.7-12.4,8.4-20.4,8.4c-8.1,0-14.7-2.8-20.4-8.4l-3.9-3.9l-3.9,3.9l-18.2,18.2l-4,4l4.1,3.9c9.3,8.7,20.7,14.4,33.1,16.6
					c3.9,0.7,7.8,1.1,11.7,1.1c36.3,0,65.8-29.5,65.8-65.8C273.3,70.4,243.7,40.9,207.5,40.9L207.5,40.9z"/>
			</g>
		</g>
		<g>
			<g>
				<path class="st0" d="M200.3,208.4l-6.7-21.6c-5.6-1-11-2.6-16.1-4.8l-0.8,0.6l-1.3-1.3l-3.6-1.8l2.4-2.1l0.3-0.6l-19-19.1
					l6.9-6.9l1.9,1.8c11.7,10.9,27,17,43.1,17c18,0,35.2-7.7,47.2-21.2c10.3-11.6,16-26.5,16-42c0-17.5-7-33.8-19.8-45.9
					c-11.8-11.2-27.2-17.3-43.4-17.3c-10.6,0-21.2,2.7-30.5,7.9l-17.8,9.8l32.3-31.5l0.1-0.9l3.1-10.2l4.4-14H222l7.5,24.2l13.1,4
					l20.9-15.6l18.3,13l-8.6,24.2l8.2,10.9h26.5l6.6,19.8l-3,2.2c-0.9,0.7-1.6,1.2-2.4,1.8l-4.6,3.1c-3.4,2.2-6.7,4.5-10,6.8
					c-0.1,0.1-0.2,0.2-0.3,0.2l12.2,5.2l0.4,0.4c1.3,1.3,1.6,2.6,1.6,3.4c0,0.9-0.3,2.2-1.6,3.4l-0.4,0.4l-8.5,3.6l16.7,11.3
					l-6.9,20.7h-26.5l-7.5,10.1l8.8,24.4l-18.2,13l-3.2-2.2c-0.9-0.6-1.7-1.1-2.4-1.7l-4.4-3.3c-3.2-2.4-6.4-4.8-9.7-7.2
					c-0.2-0.1-0.4-0.3-0.7-0.4c-4.4,2.1-8.9,3.9-13.5,5.1l-7.1,23H200.3z"/>
			</g>
			<g>
				<path d="M219.9,7.3c2.6,8.3,5,16.1,7.3,23.7c5.6,1.7,10.6,3.3,15.8,4.9c6.8-5,13.5-10.1,20.4-15.3c5.1,3.6,10,7.1,15,10.6
					c-2.9,8.3-5.7,16-8.4,23.7c3.4,4.5,6.6,8.8,9.9,13.2h25.9c1.8,5.4,3.6,10.7,5.4,16.1c-1.5,1.1-2.6,2-3.7,2.7
					c-4.9,3.3-9.8,6.5-14.6,9.9c-1.2,0.9-2.6,2.4-2.7,3.7l14.6,6.2c1,1,1,2,0,3l-12.7,5.4c6.3,4.3,12.6,8.5,19.1,13
					c-1.9,5.8-3.8,11.3-5.6,16.8h-25.9c-3,4.1-6,8.1-9.2,12.4c2.8,7.7,5.6,15.5,8.5,23.8c-5,3.6-10,7.1-14.9,10.7
					c-1.6-1.1-2.8-1.9-3.9-2.7c-4.7-3.5-9.4-7.1-14.2-10.5c-0.7-0.5-1.6-0.9-2.5-1.1c-4.9,2.5-10.1,4.5-15.5,5.8
					c-2.3,7.4-4.6,14.9-7,22.5h-18.9c-2.3-7.4-4.5-14.4-6.6-21.3c-6.6-1-12.8-2.9-18.6-5.5c1.2-1,1.7-1.5,1.7-1.5l-19.3-19.4
					l3.1-3.1c12.1,11.3,28,17.7,44.9,17.7c19.5,0,37.1-8.6,49.2-22.1c10.4-11.7,16.7-27,16.7-43.8c0-18.8-8-35.8-20.7-47.9
					c-11.8-11.2-27.7-18.1-45.2-18.1c-11.3,0-22.2,2.9-31.9,8.2l16.5-16.1l2-1.9l0.1-1.6c1-3.4,2-6.7,3-9.9c1.2-4,2.5-7.9,3.8-12.1
					H219.9 M176.8,178.8c0,0,0.1,0,0.1,0c0,0,0.1,0,0.1,0.1c0,0-0.1,0.1-0.1,0.1C176.9,178.9,176.8,178.8,176.8,178.8 M176.9,179
					c0.1,0.1,0.1,0.1,0.1,0.1C177,179.1,176.9,179.1,176.9,179C176.9,179,176.9,179,176.9,179 M224,1.8h-4h-18.9h-4l-1.2,3.8
					l-1.2,3.8l-2.6,8.4l-2.6,8.5l-0.4,1.4l-0.2,0.6l0,0.2l-0.5,0.5L171.8,45l-29.1,28.4l35.6-19.7c8.9-4.9,19-7.5,29.2-7.5
					c15.5,0,30.2,5.9,41.5,16.6c12.2,11.6,19,27.1,19,43.9c0,14.8-5.4,29.1-15.3,40.1c-11.5,12.9-27.9,20.3-45.1,20.3
					c-15.4,0-30-5.8-41.2-16.2l-3.9-3.6l-3.7,3.7l-3.1,3.1l-3.9,3.9l3.9,3.9l15.2,15.2l-3.8,3.2l0,0l0,0l0.5,0.2l6.3,3.1l2.6,3
					l1.6-1.4c4.3,1.7,8.8,3.1,13.5,4l5.6,18.1l1.2,3.8h4h18.9h4l1.2-3.8l3.8-12.2l2.3-7.4c3.8-1.1,7.6-2.5,11.2-4.2
					c3,2.1,6,4.4,8.9,6.6c1.5,1.1,3,2.2,4.4,3.3c0.8,0.6,1.6,1.2,2.6,1.8l1.5,1l3.2,2.2l3.1-2.2l14.9-10.7l3.4-2.4l-1.4-3.9L280,167
					l-3.2-8.8l3.1-4.2l2.7-3.6h23.1h3.9l1.2-3.7l5.5-16.4l0.1-0.4l1.3-3.9l-3.4-2.3l-10.8-7.3l3.4-1.4l1-0.4l0.8-0.7
					c2-1.9,2.4-4,2.4-5.4c0-1.4-0.4-3.4-2.4-5.4l-0.8-0.8l-1-0.4l-7.2-3c2-1.4,4.1-2.7,6.1-4.1c1.6-1.1,3.2-2.1,4.7-3.2
					c0.8-0.6,1.6-1.2,2.6-1.9l1.3-1l3.2-2.4l-1.3-3.8l-2.6-7.7l-2.8-8.3l-1.2-3.7h-3.9h-23.1l-0.2-0.2l-6.3-8.4l7.4-20.9l1.4-3.9
					l-3.4-2.4l-11.5-8.1l-3.5-2.5l-3.2-2.3l-3.2,2.4L250,23.9l-7.9,5.9l-1.8-0.6l-8.6-2.6l-6.5-20.9L224,1.8L224,1.8z"/>
			</g>
		</g>
	</g>
	<g>
		
			<rect x="159.4" y="157.8" transform="matrix(0.7066 -0.7076 0.7076 0.7066 -64.9618 159.1033)" class="st1" width="0" height="0.2"/>
	</g>
	<g>
		<g>
			<g>
				<path class="st2" d="M94.8,207.4l-7.2-23.2c-4.6-1.2-9.1-2.8-13.4-4.9c-0.3,0.1-0.5,0.3-0.7,0.4c-3.3,2.3-6.5,4.8-9.8,7.2
					l-4.3,3.3c-0.8,0.6-1.5,1.1-2.5,1.7l-3.1,2.1l-18.2-13l8.7-24.4l-7.5-10.1H10.3L3.5,126l16.7-11.4l-9.4-4l-0.4-0.4
					c-2.1-2.1-2.1-4.8,0-6.9l0.4-0.4l12.3-5.2c-3.1-2.2-6.4-4.4-9.6-6.5l-4.7-3.1c-0.8-0.5-1.5-1.1-2.4-1.8l-3-2.2l6.6-19.8h26.5
					l8.2-10.9l-8.6-24.2l18.3-13l20.9,15.6l13.1-4L96,3.6h22.6l0.9,1.9l7,22.6l12.6,4.1l20.7-15.5l1.6,1.1
					c3.3,2.3,11.2,7.6,17.3,11.6l5.8,3.8l-31.2,32.9l-2-2.1c-1.2-1.2-2.4-2.3-3.6-3.3c-3.1-2.6-6.4-5-9.8-6.9
					c-2.1-1.2-4.2-2.3-6.3-3.2c-2-0.8-4-1.6-6.1-2.3c-3.3-1-6.7-1.8-10.2-2.3c-2.9-0.4-5.8-0.6-8.7-0.6c-13.1,0-25.6,4-36.3,11.5
					c-16.8,11.9-26.9,31.2-26.9,51.6c0,34.8,28.3,63.2,63.2,63.2c17.4,0,34.3-7.3,46.2-20.2l1.9-2.1l2,2l26,26.1l-2.7,1.9
					c-0.1,0-0.5,0.4-1.6,1.3l-20,14.9l-1.6-1.2c-3.4-2.4-9.9-8.1-14.8-12.4l-2.3-1.7c-4.9,2.1-10.1,3.7-15.5,4.8l-6.9,22.2H94.8z"/>
			</g>
			<g>
				<path d="M116.9,6.3c1.3,4.2,2.5,8.1,3.8,12.1c1.2,3.9,2.4,7.7,3.6,11.9c1.4,0.5,2.9,0.9,4.3,1.4c2.1,0.7,4.2,1.4,6.3,2.1
					c1.2,0.4,2.5,0.8,3.7,1.2c0.3,0.1,0.6,0.2,0.9,0.3c6.2-4.6,12.3-9.2,18.7-14c0.5-0.4,1-0.8,1.5-1.1c3.6,2.6,12.6,8.5,17.4,11.6
					c1.8,1.2,3.1,2,3.1,2l-2.2,2.3l-2,2.1l-13.3,14.1l-4.4,4.6l-0.6,0.6l-0.1,0.1l-4.4,4.6c0,0-0.1-0.1-0.1-0.1
					c-1.2-1.2-2.4-2.3-3.6-3.4c-3.2-2.7-6.6-5.1-10.3-7.2c-2.1-1.2-4.3-2.3-6.6-3.3c-2.1-0.9-4.2-1.7-6.3-2.4
					c-3.4-1.1-7-1.9-10.6-2.4c-3-0.4-6-0.6-9-0.6c-14.1,0-27.2,4.5-37.9,12c-16.9,11.9-28,31.6-28,53.9c0,36.3,29.6,65.9,65.9,65.9
					c19,0,36.2-8.1,48.2-21c0,0,0,0,0,0l4.3,4.3l0,0l0.1,0.1l0,0l19.3,19.4c0,0-0.5,0.3-1.8,1.5c-6,4.5-12,8.9-18.2,13.6
					c-3.4-2.4-10.3-8.5-14.6-12.2c-1.2-0.9-2.5-1.8-3.7-2.8c-5.7,2.6-11.7,4.4-18,5.5c-2.2,7-4.4,14.3-6.8,21.8H96.8
					c-2.4-7.7-4.7-15.3-7.1-22.8c-5.4-1.3-10.5-3.1-15.4-5.5c-0.9,0.2-1.8,0.6-2.5,1.1c-4.8,3.4-9.4,7-14.2,10.5
					c-1.1,0.8-2.3,1.6-3.9,2.7c-5-3.6-9.9-7.1-14.9-10.7c3-8.3,5.8-16.1,8.5-23.8c-3.1-4.2-6.1-8.3-9.2-12.4H12.3
					c-1.8-5.5-3.7-11-5.6-16.8c6.6-4.5,12.9-8.7,19.2-13l-13.5-5.7c-1-1-1-2,0-3l15.2-6.4c-0.4-1.2-1.5-2.4-2.5-3.1
					c-4.8-3.4-9.7-6.6-14.6-9.9c-1.1-0.8-2.2-1.6-3.7-2.7c1.8-5.4,3.6-10.7,5.4-16.1H38c3.3-4.4,6.5-8.7,9.9-13.2
					c-2.7-7.7-5.5-15.4-8.4-23.7c5.1-3.6,9.9-7,15-10.6c7,5.2,13.7,10.2,20.4,15.3c5.2-1.6,10.2-3.2,15.8-4.9
					c2.3-7.6,4.8-15.4,7.3-23.7h18.5H116.9 M121,0.8h-4h-0.3H98.1h-4l-1.2,3.9l-6.5,20.9l-3.1,1L76,28.8l-3-2.2L57.7,15.2l-3.2-2.4
					l-3.2,2.3L44.5,20l-8.2,5.8l-3.4,2.4l1.4,3.9L41.7,53l-2.6,3.4l-3.9,5.2H12.1H8.2L7,65.4L2.7,78.2l-1.1,3.3l-1.3,3.8l3.2,2.4
					l1.3,1c0.9,0.7,1.7,1.3,2.6,1.9c1.6,1.1,3.2,2.1,4.7,3.2c1.8,1.2,3.6,2.4,5.4,3.6l-7.3,3.1l-1,0.4l-0.8,0.8c-2,2-2.4,4-2.4,5.4
					c0,1.4,0.4,3.4,2.4,5.4l0.8,0.7l1,0.4l4.3,1.8l-3.9,2.6l-7,4.7l-3.4,2.3l1.3,3.9l4.4,13.2l1.2,3.6l1.2,3.7h3.9h23.1l5.8,7.8
					l-7.6,21l-1.4,3.9l3.4,2.4l11.3,8.1l3.6,2.6l3.1,2.2l3.2-2.2l1.5-1c1-0.7,1.8-1.2,2.6-1.8c1.5-1.1,3-2.2,4.4-3.3
					c2.9-2.2,5.9-4.5,9-6.7c3.6,1.6,7.3,3,11.1,4l1.6,5.1l4.6,14.8l1.2,3.8h4h18.9h4l1.2-3.8l5.8-18.7c4.5-1,8.8-2.3,13-4l0.1,0.1
					l0.9,0.7c4.9,4.4,11.4,10,14.8,12.5l3.2,2.3l3.2-2.4l8.3-6.2l9.9-7.4l0.1-0.1l0.1-0.1c0.9-0.8,1.3-1.1,1.4-1.2l5.2-3.8l-4.5-4.6
					l-19.3-19.4l-0.1-0.1l0,0l-4.3-4.3l-3.9-4l-3.9,4c-11.5,12.4-27.6,19.4-44.3,19.4c-33.3,0-60.4-27.1-60.4-60.4
					c0-19.6,9.6-38.1,25.7-49.4c10.2-7.2,22.2-11,34.7-11c2.7,0,5.5,0.2,8.3,0.6c3.3,0.5,6.6,1.2,9.7,2.2c1.9,0.6,3.9,1.3,5.8,2.2
					c2,0.9,4,1.9,6,3c3.3,1.9,6.5,4.1,9.4,6.6c1.3,1.1,2.4,2.1,3.3,3.1l4,4l4-3.9l4.4-4.6l0.7-0.7l4.4-4.6l13.3-14.1l2-2.1l2.2-2.3
					l4.5-4.8l-5.5-3.6l-3.1-2c-4-2.6-13.6-8.9-17.2-11.5l-3.2-2.3l-3.2,2.4l-1.5,1.1l-15.5,11.6l-0.9,0.7l-1.9-0.6l-3.3-1.1l-3-1
					l-1.6-0.5l-0.3-1.1l-2.5-8.1l-2.6-8.3l-1.2-3.8L121,0.8L121,0.8z"/>
			</g>
		</g>
		<g>
			<g>
				<path class="st2" d="M106.8,171.7c-6.6,0-13.2-1.1-19.6-3.1c-26-8.5-43.5-32.6-43.5-59.9c0-34.8,28.3-63,63.1-63
					c7.5,0,15,1.4,22.2,4.1c2.5,0.9,4.7,1.9,6.8,3c2.4,1.3,4.8,2.7,7.1,4.3c1.5,1.1,3,2.2,4.5,3.4c1.3,1.1,2.6,2.3,3.9,3.5l1.9,1.9
					l-20.6,20.6l-1.9-1.9c-6.2-6.2-13.5-9.2-22.4-9.2c-8.8,0-16.1,3-22.4,9.2c-3.7,3.7-6.3,8-7.8,12.9l10.5,5.6l0.3,0.3
					c2.1,2.1,2.1,4.8,0,6.9l-0.3,0.3l-10.5,5.6c1.5,5,4.1,9.3,7.8,13c6.2,6.2,13.5,9.2,22.4,9.2s16.1-3,22.4-9.2l1.9-1.9l14.9,14.9
					l0.4-0.4l1.6,2.2l5.3,5.3l-1.6,1.9C141.1,164.3,124.3,171.7,106.8,171.7z"/>
			</g>
			<g>
				<path d="M106.8,48.4c7.5,0,14.6,1.4,21.3,3.9c2.2,0.8,4.4,1.8,6.5,2.9c2.4,1.2,4.6,2.6,6.8,4.1c1.5,1,2.9,2.1,4.3,3.3
					c1.3,1.1,2.5,2.2,3.7,3.4l-9.7,9.7l-4.6,4.6l-2.4,2.4c-6.7-6.7-14.8-10-24.3-10c-9.5,0-17.6,3.3-24.3,10
					c-4.5,4.5-7.6,9.9-9.1,16.2l12.1,6.5c1,1,1,2,0,3L75,114.9c1.5,6.3,4.5,11.8,9.1,16.3c6.7,6.7,14.8,10,24.3,10
					c9.5,0,17.6-3.3,24.3-10l14.9,14.9c0,0,0.1-0.1,0.1-0.1l3.5,3.6c0,0,0,0,0,0c-11,11.9-26.7,19.4-44.2,19.4
					c-6.5,0-12.8-1.1-18.7-3c-24.1-7.9-41.6-30.6-41.6-57.3C46.5,75.4,73.6,48.4,106.8,48.4 M106.8,42.9C70.6,42.9,41,72.4,41,108.7
					c0,28.5,18.2,53.6,45.4,62.5c6.6,2.2,13.5,3.3,20.4,3.3c18.2,0,35.8-7.7,48.2-21.2l3.6-3.8l-3.7-3.8l-3.5-3.6l-3.8-3.8l-0.1,0.1
					l-11-11l-3.9-3.9l-3.9,3.9c-5.7,5.7-12.4,8.4-20.4,8.4c-8.1,0-14.7-2.8-20.4-8.4c-2.9-2.9-5-6.1-6.4-9.7l8.1-4.4l0.7-0.4
					l0.6-0.6c2-1.9,2.4-4,2.4-5.4c0-1.4-0.4-3.4-2.4-5.4l-0.6-0.6l-0.7-0.4l-8.1-4.3c1.4-3.6,3.5-6.8,6.4-9.6
					c5.7-5.7,12.4-8.4,20.4-8.4c8.1,0,14.7,2.8,20.4,8.4l3.9,3.9l3.9-3.9l2.4-2.4l4.6-4.6l9.7-9.7l3.9-3.9l-3.9-3.9
					c-1.2-1.2-2.5-2.4-4.1-3.7c-1.4-1.2-2.9-2.4-4.6-3.6c-2.3-1.6-4.8-3.2-7.4-4.5c-2.2-1.1-4.5-2.2-7.1-3.1
					C122.5,44.4,114.7,42.9,106.8,42.9L106.8,42.9z"/>
			</g>
		</g>
	</g>
</g>
</svg>